# Exported from Godot
v -0.262866 0.425325 0.000000
v 0.262866 0.425325 0.000000
v -0.262866 -0.425325 0.000000
v 0.262866 -0.425325 0.000000
v 0.000000 -0.262866 0.425325
v 0.000000 0.262866 0.425325
v 0.000000 -0.262866 -0.425325
v 0.000000 0.262866 -0.425325
v 0.425325 0.000000 -0.262866
v 0.425325 0.000000 0.262866
v -0.425325 0.000000 -0.262866
v -0.425325 0.000000 0.262866
v -0.231790 0.432992 0.093761
v -0.184010 0.420407 0.198489
v -0.122673 0.382499 0.297734
v -0.057948 0.325551 0.375044
v -0.325551 0.375045 0.057948
v -0.292185 0.370392 0.165644
v -0.236618 0.342436 0.277037
v -0.165644 0.292185 0.370392
v -0.093761 0.231790 0.432992
v -0.382499 0.297734 0.122673
v -0.342436 0.277037 0.236618
v -0.277037 0.236618 0.342436
v -0.198489 0.184010 0.420407
v -0.420407 0.198489 0.184010
v -0.370392 0.165644 0.292185
v -0.297734 0.122673 0.382499
v -0.432992 0.093761 0.231790
v -0.375044 0.057948 0.325551
v -0.173843 0.468806 0.000000
v -0.061337 0.496224 0.000000
v 0.061337 0.496224 0.000000
v 0.173843 0.468806 0.000000
v -0.126541 0.472765 0.102374
v 0.000000 0.488674 0.105819
v 0.126541 0.472765 0.102374
v 0.231790 0.432992 0.093761
v -0.065400 0.448255 0.211637
v 0.065400 0.448255 0.211637
v 0.184010 0.420407 0.198489
v 0.000000 0.394559 0.307121
v 0.122673 0.382499 0.297734
v 0.057948 0.325551 0.375044
v -0.231790 0.432992 -0.093761
v -0.184010 0.420407 -0.198489
v -0.122673 0.382499 -0.297734
v -0.057948 0.325551 -0.375044
v -0.126541 0.472765 -0.102374
v -0.065400 0.448255 -0.211637
v 0.000000 0.394559 -0.307121
v 0.057948 0.325551 -0.375044
v 0.000000 0.488674 -0.105819
v 0.065400 0.448255 -0.211637
v 0.122673 0.382499 -0.297734
v 0.126541 0.472765 -0.102374
v 0.184010 0.420407 -0.198489
v 0.231790 0.432992 -0.093761
v -0.325551 0.375045 -0.057948
v -0.382499 0.297734 -0.122673
v -0.420407 0.198489 -0.184010
v -0.432992 0.093761 -0.231790
v -0.292185 0.370392 -0.165644
v -0.342436 0.277037 -0.236618
v -0.370392 0.165644 -0.292185
v -0.375044 0.057948 -0.325551
v -0.236618 0.342436 -0.277037
v -0.277037 0.236618 -0.342436
v -0.297734 0.122673 -0.382499
v -0.165644 0.292185 -0.370392
v -0.198489 0.184010 -0.420407
v -0.093761 0.231790 -0.432992
v -0.394559 0.307121 0.000000
v -0.448255 0.211637 0.065400
v -0.472765 0.102374 0.126541
v -0.468806 0.000000 0.173843
v -0.448255 0.211637 -0.065400
v -0.488674 0.105819 0.000000
v -0.496224 0.000000 0.061337
v -0.472765 0.102374 -0.126541
v -0.496224 0.000000 -0.061337
v -0.468806 -0.000000 -0.173843
v 0.325551 0.375045 0.057948
v 0.382499 0.297734 0.122673
v 0.420407 0.198489 0.184010
v 0.432992 0.093761 0.231790
v 0.292185 0.370392 0.165644
v 0.342436 0.277037 0.236618
v 0.370392 0.165644 0.292185
v 0.375044 0.057948 0.325551
v 0.236618 0.342436 0.277037
v 0.277037 0.236618 0.342436
v 0.297734 0.122673 0.382499
v 0.165644 0.292185 0.370392
v 0.198489 0.184010 0.420407
v 0.093761 0.231790 0.432992
v 0.000000 0.173843 0.468806
v 0.000000 0.061337 0.496224
v 0.000000 -0.061337 0.496224
v 0.000000 -0.173843 0.468806
v -0.102374 0.126541 0.472765
v -0.105819 0.000000 0.488674
v -0.102374 -0.126541 0.472765
v -0.093761 -0.231790 0.432992
v -0.211637 0.065400 0.448255
v -0.211637 -0.065400 0.448255
v -0.198489 -0.184010 0.420407
v -0.307121 0.000000 0.394559
v -0.297734 -0.122673 0.382499
v -0.375044 -0.057948 0.325551
v -0.432992 -0.093761 0.231790
v -0.420407 -0.198489 0.184010
v -0.382499 -0.297734 0.122673
v -0.325551 -0.375045 0.057948
v -0.472765 -0.102374 0.126541
v -0.448255 -0.211637 0.065400
v -0.394559 -0.307121 0.000000
v -0.325551 -0.375045 -0.057948
v -0.488674 -0.105819 0.000000
v -0.448255 -0.211637 -0.065400
v -0.382499 -0.297734 -0.122673
v -0.472765 -0.102374 -0.126541
v -0.420407 -0.198489 -0.184010
v -0.432992 -0.093761 -0.231790
v -0.375044 -0.057948 -0.325551
v -0.297734 -0.122673 -0.382499
v -0.198489 -0.184010 -0.420407
v -0.093761 -0.231790 -0.432992
v -0.307121 0.000000 -0.394559
v -0.211637 -0.065400 -0.448255
v -0.102374 -0.126541 -0.472765
v 0.000000 -0.173843 -0.468806
v -0.211637 0.065400 -0.448255
v -0.105819 0.000000 -0.488674
v 0.000000 -0.061337 -0.496224
v -0.102374 0.126541 -0.472765
v 0.000000 0.061337 -0.496224
v 0.000000 0.173843 -0.468806
v 0.093761 0.231790 -0.432992
v 0.198489 0.184010 -0.420407
v 0.297734 0.122673 -0.382499
v 0.375044 0.057948 -0.325551
v 0.165644 0.292185 -0.370392
v 0.277037 0.236618 -0.342436
v 0.370392 0.165644 -0.292185
v 0.432992 0.093761 -0.231790
v 0.236618 0.342436 -0.277037
v 0.342436 0.277037 -0.236618
v 0.420407 0.198489 -0.184010
v 0.292185 0.370392 -0.165644
v 0.382499 0.297734 -0.122673
v 0.325551 0.375045 -0.057948
v 0.231790 -0.432992 0.093761
v 0.184010 -0.420407 0.198489
v 0.122673 -0.382499 0.297734
v 0.057948 -0.325551 0.375044
v 0.325551 -0.375045 0.057948
v 0.292185 -0.370392 0.165644
v 0.236618 -0.342436 0.277037
v 0.165644 -0.292185 0.370392
v 0.093761 -0.231790 0.432992
v 0.382499 -0.297734 0.122673
v 0.342436 -0.277037 0.236618
v 0.277037 -0.236618 0.342436
v 0.198489 -0.184010 0.420407
v 0.420407 -0.198489 0.184010
v 0.370392 -0.165644 0.292185
v 0.297734 -0.122673 0.382499
v 0.432992 -0.093761 0.231790
v 0.375044 -0.057948 0.325551
v 0.173843 -0.468806 0.000000
v 0.061337 -0.496224 0.000000
v -0.061337 -0.496224 0.000000
v -0.173843 -0.468806 0.000000
v 0.126541 -0.472765 0.102374
v 0.000000 -0.488674 0.105819
v -0.126541 -0.472765 0.102374
v -0.231790 -0.432992 0.093761
v 0.065400 -0.448255 0.211637
v -0.065400 -0.448255 0.211637
v -0.184010 -0.420407 0.198489
v 0.000000 -0.394559 0.307121
v -0.122673 -0.382499 0.297734
v -0.057948 -0.325551 0.375044
v 0.231790 -0.432992 -0.093761
v 0.184010 -0.420407 -0.198489
v 0.122673 -0.382499 -0.297734
v 0.057948 -0.325551 -0.375044
v 0.126541 -0.472765 -0.102374
v 0.065400 -0.448255 -0.211637
v 0.000000 -0.394559 -0.307121
v -0.057948 -0.325551 -0.375044
v 0.000000 -0.488674 -0.105819
v -0.065400 -0.448255 -0.211637
v -0.122673 -0.382499 -0.297734
v -0.126541 -0.472765 -0.102374
v -0.184010 -0.420407 -0.198489
v -0.231790 -0.432992 -0.093761
v 0.325551 -0.375045 -0.057948
v 0.382499 -0.297734 -0.122673
v 0.420407 -0.198489 -0.184010
v 0.432992 -0.093761 -0.231790
v 0.292185 -0.370392 -0.165644
v 0.342436 -0.277037 -0.236618
v 0.370392 -0.165644 -0.292185
v 0.375044 -0.057948 -0.325551
v 0.236618 -0.342436 -0.277037
v 0.277037 -0.236618 -0.342436
v 0.297734 -0.122673 -0.382499
v 0.165644 -0.292185 -0.370392
v 0.198489 -0.184010 -0.420407
v 0.093761 -0.231790 -0.432992
v 0.394559 -0.307121 0.000000
v 0.448255 -0.211637 0.065400
v 0.472765 -0.102374 0.126541
v 0.468806 0.000000 0.173843
v 0.448255 -0.211637 -0.065400
v 0.488674 -0.105819 0.000000
v 0.496224 0.000000 0.061337
v 0.472765 -0.102374 -0.126541
v 0.496224 0.000000 -0.061337
v 0.468806 0.000000 -0.173843
v 0.102374 -0.126541 0.472765
v 0.105819 0.000000 0.488674
v 0.102374 0.126541 0.472765
v 0.211637 -0.065400 0.448255
v 0.211637 0.065400 0.448255
v 0.307121 0.000000 0.394559
v -0.292185 -0.370392 0.165644
v -0.342436 -0.277037 0.236618
v -0.370392 -0.165644 0.292185
v -0.236618 -0.342436 0.277037
v -0.277037 -0.236618 0.342436
v -0.165644 -0.292185 0.370392
v -0.165644 -0.292185 -0.370392
v -0.277037 -0.236618 -0.342436
v -0.370392 -0.165644 -0.292185
v -0.236618 -0.342436 -0.277037
v -0.342436 -0.277037 -0.236618
v -0.292185 -0.370392 -0.165644
v 0.307121 0.000000 -0.394559
v 0.211637 0.065400 -0.448255
v 0.102374 0.126541 -0.472765
v 0.211637 -0.065400 -0.448255
v 0.105819 0.000000 -0.488674
v 0.102374 -0.126541 -0.472765
v 0.472765 0.102374 0.126541
v 0.448255 0.211637 0.065400
v 0.394559 0.307121 0.000000
v 0.488674 0.105819 0.000000
v 0.448255 0.211637 -0.065400
v 0.472765 0.102374 -0.126541
f 1 13 17
f 17 13 18
f 13 14 18
f 18 14 19
f 14 15 19
f 19 15 20
f 15 16 20
f 20 16 21
f 16 6 21
f 17 18 22
f 22 18 23
f 18 19 23
f 23 19 24
f 19 20 24
f 24 20 25
f 20 21 25
f 22 23 26
f 26 23 27
f 23 24 27
f 27 24 28
f 24 25 28
f 26 27 29
f 29 27 30
f 27 28 30
f 29 30 12
f 1 31 13
f 13 31 35
f 31 32 35
f 35 32 36
f 32 33 36
f 36 33 37
f 33 34 37
f 37 34 38
f 34 2 38
f 13 35 14
f 14 35 39
f 35 36 39
f 39 36 40
f 36 37 40
f 40 37 41
f 37 38 41
f 14 39 15
f 15 39 42
f 39 40 42
f 42 40 43
f 40 41 43
f 15 42 16
f 16 42 44
f 42 43 44
f 16 44 6
f 1 45 31
f 31 45 49
f 45 46 49
f 49 46 50
f 46 47 50
f 50 47 51
f 47 48 51
f 51 48 52
f 48 8 52
f 31 49 32
f 32 49 53
f 49 50 53
f 53 50 54
f 50 51 54
f 54 51 55
f 51 52 55
f 32 53 33
f 33 53 56
f 53 54 56
f 56 54 57
f 54 55 57
f 33 56 34
f 34 56 58
f 56 57 58
f 34 58 2
f 1 59 45
f 45 59 63
f 59 60 63
f 63 60 64
f 60 61 64
f 64 61 65
f 61 62 65
f 65 62 66
f 62 11 66
f 45 63 46
f 46 63 67
f 63 64 67
f 67 64 68
f 64 65 68
f 68 65 69
f 65 66 69
f 46 67 47
f 47 67 70
f 67 68 70
f 70 68 71
f 68 69 71
f 47 70 48
f 48 70 72
f 70 71 72
f 48 72 8
f 1 17 59
f 59 17 73
f 17 22 73
f 73 22 74
f 22 26 74
f 74 26 75
f 26 29 75
f 75 29 76
f 29 12 76
f 59 73 60
f 60 73 77
f 73 74 77
f 77 74 78
f 74 75 78
f 78 75 79
f 75 76 79
f 60 77 61
f 61 77 80
f 77 78 80
f 80 78 81
f 78 79 81
f 61 80 62
f 62 80 82
f 80 81 82
f 62 82 11
f 2 83 38
f 38 83 87
f 83 84 87
f 87 84 88
f 84 85 88
f 88 85 89
f 85 86 89
f 89 86 90
f 86 10 90
f 38 87 41
f 41 87 91
f 87 88 91
f 91 88 92
f 88 89 92
f 92 89 93
f 89 90 93
f 41 91 43
f 43 91 94
f 91 92 94
f 94 92 95
f 92 93 95
f 43 94 44
f 44 94 96
f 94 95 96
f 44 96 6
f 6 97 21
f 21 97 101
f 97 98 101
f 101 98 102
f 98 99 102
f 102 99 103
f 99 100 103
f 103 100 104
f 100 5 104
f 21 101 25
f 25 101 105
f 101 102 105
f 105 102 106
f 102 103 106
f 106 103 107
f 103 104 107
f 25 105 28
f 28 105 108
f 105 106 108
f 108 106 109
f 106 107 109
f 28 108 30
f 30 108 110
f 108 109 110
f 30 110 12
f 12 111 76
f 76 111 115
f 111 112 115
f 115 112 116
f 112 113 116
f 116 113 117
f 113 114 117
f 117 114 118
f 114 3 118
f 76 115 79
f 79 115 119
f 115 116 119
f 119 116 120
f 116 117 120
f 120 117 121
f 117 118 121
f 79 119 81
f 81 119 122
f 119 120 122
f 122 120 123
f 120 121 123
f 81 122 82
f 82 122 124
f 122 123 124
f 82 124 11
f 11 125 66
f 66 125 129
f 125 126 129
f 129 126 130
f 126 127 130
f 130 127 131
f 127 128 131
f 131 128 132
f 128 7 132
f 66 129 69
f 69 129 133
f 129 130 133
f 133 130 134
f 130 131 134
f 134 131 135
f 131 132 135
f 69 133 71
f 71 133 136
f 133 134 136
f 136 134 137
f 134 135 137
f 71 136 72
f 72 136 138
f 136 137 138
f 72 138 8
f 8 139 52
f 52 139 143
f 139 140 143
f 143 140 144
f 140 141 144
f 144 141 145
f 141 142 145
f 145 142 146
f 142 9 146
f 52 143 55
f 55 143 147
f 143 144 147
f 147 144 148
f 144 145 148
f 148 145 149
f 145 146 149
f 55 147 57
f 57 147 150
f 147 148 150
f 150 148 151
f 148 149 151
f 57 150 58
f 58 150 152
f 150 151 152
f 58 152 2
f 4 153 157
f 157 153 158
f 153 154 158
f 158 154 159
f 154 155 159
f 159 155 160
f 155 156 160
f 160 156 161
f 156 5 161
f 157 158 162
f 162 158 163
f 158 159 163
f 163 159 164
f 159 160 164
f 164 160 165
f 160 161 165
f 162 163 166
f 166 163 167
f 163 164 167
f 167 164 168
f 164 165 168
f 166 167 169
f 169 167 170
f 167 168 170
f 169 170 10
f 4 171 153
f 153 171 175
f 171 172 175
f 175 172 176
f 172 173 176
f 176 173 177
f 173 174 177
f 177 174 178
f 174 3 178
f 153 175 154
f 154 175 179
f 175 176 179
f 179 176 180
f 176 177 180
f 180 177 181
f 177 178 181
f 154 179 155
f 155 179 182
f 179 180 182
f 182 180 183
f 180 181 183
f 155 182 156
f 156 182 184
f 182 183 184
f 156 184 5
f 4 185 171
f 171 185 189
f 185 186 189
f 189 186 190
f 186 187 190
f 190 187 191
f 187 188 191
f 191 188 192
f 188 7 192
f 171 189 172
f 172 189 193
f 189 190 193
f 193 190 194
f 190 191 194
f 194 191 195
f 191 192 195
f 172 193 173
f 173 193 196
f 193 194 196
f 196 194 197
f 194 195 197
f 173 196 174
f 174 196 198
f 196 197 198
f 174 198 3
f 4 199 185
f 185 199 203
f 199 200 203
f 203 200 204
f 200 201 204
f 204 201 205
f 201 202 205
f 205 202 206
f 202 9 206
f 185 203 186
f 186 203 207
f 203 204 207
f 207 204 208
f 204 205 208
f 208 205 209
f 205 206 209
f 186 207 187
f 187 207 210
f 207 208 210
f 210 208 211
f 208 209 211
f 187 210 188
f 188 210 212
f 210 211 212
f 188 212 7
f 4 157 199
f 199 157 213
f 157 162 213
f 213 162 214
f 162 166 214
f 214 166 215
f 166 169 215
f 215 169 216
f 169 10 216
f 199 213 200
f 200 213 217
f 213 214 217
f 217 214 218
f 214 215 218
f 218 215 219
f 215 216 219
f 200 217 201
f 201 217 220
f 217 218 220
f 220 218 221
f 218 219 221
f 201 220 202
f 202 220 222
f 220 221 222
f 202 222 9
f 5 100 161
f 161 100 223
f 100 99 223
f 223 99 224
f 99 98 224
f 224 98 225
f 98 97 225
f 225 97 96
f 97 6 96
f 161 223 165
f 165 223 226
f 223 224 226
f 226 224 227
f 224 225 227
f 227 225 95
f 225 96 95
f 165 226 168
f 168 226 228
f 226 227 228
f 228 227 93
f 227 95 93
f 168 228 170
f 170 228 90
f 228 93 90
f 170 90 10
f 3 114 178
f 178 114 229
f 114 113 229
f 229 113 230
f 113 112 230
f 230 112 231
f 112 111 231
f 231 111 110
f 111 12 110
f 178 229 181
f 181 229 232
f 229 230 232
f 232 230 233
f 230 231 233
f 233 231 109
f 231 110 109
f 181 232 183
f 183 232 234
f 232 233 234
f 234 233 107
f 233 109 107
f 183 234 184
f 184 234 104
f 234 107 104
f 184 104 5
f 7 128 192
f 192 128 235
f 128 127 235
f 235 127 236
f 127 126 236
f 236 126 237
f 126 125 237
f 237 125 124
f 125 11 124
f 192 235 195
f 195 235 238
f 235 236 238
f 238 236 239
f 236 237 239
f 239 237 123
f 237 124 123
f 195 238 197
f 197 238 240
f 238 239 240
f 240 239 121
f 239 123 121
f 197 240 198
f 198 240 118
f 240 121 118
f 198 118 3
f 9 142 206
f 206 142 241
f 142 141 241
f 241 141 242
f 141 140 242
f 242 140 243
f 140 139 243
f 243 139 138
f 139 8 138
f 206 241 209
f 209 241 244
f 241 242 244
f 244 242 245
f 242 243 245
f 245 243 137
f 243 138 137
f 209 244 211
f 211 244 246
f 244 245 246
f 246 245 135
f 245 137 135
f 211 246 212
f 212 246 132
f 246 135 132
f 212 132 7
f 10 86 216
f 216 86 247
f 86 85 247
f 247 85 248
f 85 84 248
f 248 84 249
f 84 83 249
f 249 83 152
f 83 2 152
f 216 247 219
f 219 247 250
f 247 248 250
f 250 248 251
f 248 249 251
f 251 249 151
f 249 152 151
f 219 250 221
f 221 250 252
f 250 251 252
f 252 251 149
f 251 151 149
f 221 252 222
f 222 252 146
f 252 149 146
f 222 146 9
